<?xml version="1.0" encoding="UTF-8" standalone="no"?>
<svg width="30px" height="30px" viewBox="0 0 30 30" version="1.1" xmlns="http://www.w3.org/2000/svg" xmlns:xlink="http://www.w3.org/1999/xlink">
    <!-- Generator: Sketch 42 (36781) - http://www.bohemiancoding.com/sketch -->
    <title>lock-icon</title>
    <desc>Created with Sketch.</desc>
    <defs></defs>
    <g id="Page-1" stroke="none" stroke-width="1" fill="none" fill-rule="evenodd">
        <g id="lock-icon" fill="#888889">
            <g id="Page-1" transform="translate(5.000000, 1.000000)">
                <path d="M9.8641985,15.8969938 C8.79289023,15.8969938 7.9244391,16.7791647 7.9244391,17.8673974 C7.9244391,18.7813407 8.53713083,19.5497116 9.36798797,19.772454 L9.36798797,23.1370518 C9.36798797,23.4647039 9.63186767,23.7327524 9.95442406,23.7327524 C10.2769504,23.7327524 10.5408602,23.4647039 10.5408602,23.1370518 L10.5408602,19.7143473 C11.2784541,19.4353618 11.8039579,18.7138245 11.8039579,17.8673974 C11.8039579,16.7791647 10.9355068,15.8969938 9.8641985,15.8969938" id="Fill-1"></path>
                <g id="Group-5" transform="translate(0.000000, 0.025510)">
                    <path d="M18.8561895,26.7440267 C18.8561895,26.9224405 18.7133023,27.067585 18.5376632,27.067585 L1.46139248,27.067585 C1.28575338,27.067585 1.14286617,26.9224405 1.14286617,26.7440267 L1.14286617,12.0098848 C1.14286617,11.8314709 1.28575338,11.6863264 1.46139248,11.6863264 L18.5376632,11.6863264 C18.7133023,11.6863264 18.8561895,11.8314709 18.8561895,12.0098848 L18.8561895,26.7440267 Z M5.36458045,5.56190478 C5.36458045,4.390178 5.85065564,3.28285129 6.73327218,2.44390909 C7.62599398,1.5953741 8.81002406,1.12804593 10.0672271,1.12804593 C11.3244,1.12804593 12.5084301,1.5953741 13.4011218,2.44390909 C14.2837383,3.28285129 14.7698135,4.390178 14.7698135,5.56190478 L14.7698135,10.5254144 L5.36458045,10.5254144 L5.36458045,5.56190478 Z M18.5376632,10.5254144 L15.8753474,10.5254144 L15.8753474,5.56190478 C15.8753474,4.07602911 15.2649113,2.6774968 14.1564602,1.62393864 C13.0582045,0.579973287 11.6059338,0.00504691201 10.067197,0.00504691201 C8.52846015,0.00504691201 7.07618947,0.579973287 5.97790376,1.62393864 C4.86948271,2.6774968 4.25907669,4.07602911 4.25907669,5.56190478 L4.25907669,10.5254144 L1.46139248,10.5254144 C0.65558797,10.5254144 9.02255636e-06,11.1913502 9.02255636e-06,12.0098848 L9.02255636e-06,26.7440267 C9.02255636e-06,27.5625612 0.65558797,28.228497 1.46139248,28.228497 L18.5376632,28.228497 C19.3434677,28.228497 19.9990466,27.5625612 19.9990466,26.7440267 L19.9990466,12.0098848 C19.9990466,11.1913502 19.3434677,10.5254144 18.5376632,10.5254144 L18.5376632,10.5254144 Z" id="Fill-3"></path>
                </g>
            </g>
        </g>
    </g>
</svg>