<?xml version="1.0" encoding="UTF-8" standalone="no"?>
<svg width="75px" height="61px" viewBox="0 0 75 61" version="1.1" xmlns="http://www.w3.org/2000/svg" xmlns:xlink="http://www.w3.org/1999/xlink">
    <title>tick</title>
    <desc>Tick Icon</desc>
    <g stroke="none" stroke-width="1" fill-rule="evenodd">
        <g transform="translate(-39.000000, -48.000000)">
            <path d="M109.393611,63.3334543 L68.5065602,104.220505 C67.5821708,105.144894 65.9745372,105.143598 65.0501478,104.221802 L43.8812425,83.0515999 C43.2420785,82.4124358 42.8894363,81.5632422 42.8894363,80.6583001 C42.8894363,79.7559508 43.2420785,78.9067572 43.8812425,78.2675932 L49.6453871,72.5021522 C50.2845512,71.8629881 51.1337447,71.5116424 52.0373904,71.5116424 C52.9410361,71.5116424 53.7902297,71.8629881 54.4293938,72.5021522 L65.2251724,83.2966343 C65.9537935,84.0265519 67.2450863,84.0265519 67.9750039,83.2966343 L98.6665457,52.606389 C99.5896385,51.6819997 101.198569,51.6819997 102.122958,52.606389 L109.393611,59.877042 C109.855157,60.3385884 110.110564,60.9531193 110.110564,61.6052481 C110.110564,62.257377 109.855157,62.8719079 109.393611,63.3334543 M112.143442,57.1272105 L104.87279,49.8552611 C103.67614,48.6599077 102.08536,48 100.394752,48 C98.7028471,48 97.1120676,48.6599077 95.9154177,49.8552611 L66.5994399,79.1725354 L57.1805217,69.7523207 C55.8062542,68.3793497 53.9795156,67.6222061 52.0373904,67.6222061 C50.0952653,67.6222061 48.2685267,68.3793497 46.8955557,69.7523207 L41.1314111,75.5164653 C39.7571436,76.8894363 39,78.7161749 39,80.6583001 C39,82.6004252 39.7571436,84.4284603 41.1314111,85.8014313 L62.3003163,106.97293 C63.4969662,108.168283 65.0864492,108.826894 66.778354,108.826894 C68.4702588,108.826894 70.0597417,108.168283 71.2563916,106.971633 L112.143442,66.0832858 C113.340092,64.8866359 114,63.2971529 114,61.6052481 C114,59.9133434 113.340092,58.3238604 112.143442,57.1272105"></path>
        </g>
    </g>
</svg>