<?xml version="1.0" encoding="UTF-8" standalone="no"?>
<svg width="28px" height="28px" viewBox="0 0 28 28" version="1.1" xmlns="http://www.w3.org/2000/svg" xmlns:xlink="http://www.w3.org/1999/xlink">
    <title>ticket-icon</title>
    <desc>Ticket Icon</desc>
    <g stroke="none" stroke-width="1">
        <g fill-rule="nonzero">
            <path d="M26.6688176,9.70428401 L21.8904246,14.4561008 L21.6546006,14.2368578 C21.4061314,14.0059381 21.0164305,14.0190029 20.7841372,14.2660085 C20.551844,14.5130958 20.5650639,14.9006293 20.813451,15.1316306 L21.018976,15.3227027 L9.67610205,26.6024904 C9.61804927,26.6602203 9.5486651,26.6687941 9.51253607,26.6687941 C9.47632493,26.6687941 9.40702287,26.6602203 9.34888798,26.6024904 L7.95233666,25.2136247 C8.48400821,24.516783 8.77131613,23.6722279 8.77131613,22.7806397 C8.77131613,20.5530163 6.94885279,18.7407707 4.70885279,18.7407707 C3.81227801,18.7407707 2.9629173,19.0264807 2.26226041,19.5551952 L1.29835425,18.5967317 C1.24030147,18.5389201 1.23167977,18.4700035 1.23167977,18.4339938 C1.23167977,18.3980657 1.24030147,18.3290674 1.29835425,18.2713375 L12.7780258,6.85551295 L12.9842897,7.06062969 C13.1045009,7.18017225 13.2621548,7.24002518 13.4197267,7.24002518 C13.5772985,7.24002518 13.7349525,7.18017225 13.8551636,7.06062969 C14.095668,6.82146291 14.095668,6.43368449 13.8551636,6.19459937 L13.6489818,5.98948262 L18.2910698,1.3731311 C18.3492047,1.31540119 18.4185067,1.30682744 18.4547179,1.30682744 C18.4908469,1.30682744 18.5602311,1.31540119 18.6182839,1.3731311 L19.5284891,2.27827405 C18.9845009,2.97944342 18.6905419,3.83249064 18.6905419,4.73591884 C18.6905419,6.96354219 20.5130053,8.7757878 22.7530874,8.7757878 C23.6615683,8.7757878 24.5194686,8.48354544 25.2244774,7.94266434 L26.6688176,9.37888982 C26.7269525,9.43670138 26.7355742,9.50561799 26.7355742,9.54162774 C26.7355742,9.57755583 26.7269525,9.64647244 26.6688176,9.70428401 M27.5397736,8.51285949 L25.2370405,6.22301522 L24.801932,6.67709731 C24.2618029,7.24067842 23.5341314,7.55096649 22.7530874,7.55096649 C21.192149,7.55096649 19.9222135,6.28817571 19.9222135,4.73591884 C19.9222135,3.95921882 20.2344012,3.23567604 20.8010522,2.69855107 L21.2576739,2.26569922 L19.4891578,0.507100775 C18.9187296,-0.060236457 17.990624,-0.060154803 17.4201959,0.507100775 L0.427480352,17.4053072 C0.151832258,17.6794222 8.21114372e-06,18.0447456 8.21114372e-06,18.4339938 C8.21114372e-06,18.8233236 0.151832258,19.188647 0.427480352,19.462762 L2.24214311,21.2673321 L2.67749795,20.8211705 C3.21590264,20.2694293 3.93733372,19.965592 4.70885279,19.965592 C6.26970909,19.965592 7.53964457,21.2283828 7.53964457,22.7806397 C7.53964457,23.5478677 7.23410792,24.2652864 6.67928094,24.800615 L6.23054194,25.2336301 L8.47801408,27.4685207 C8.76326921,27.7521894 9.13786158,27.8940237 9.51253607,27.8940237 C9.88721056,27.8940237 10.2618029,27.7521894 10.5470581,27.4685207 L27.5397736,10.5703143 C28.1102018,10.0031404 28.1102018,9.08003341 27.5397736,8.51285949"></path>
            <path d="M19.4792551,12.0463544 C19.2311965,11.8150265 18.8414135,11.8275197 18.6087918,12.0742803 C18.3761701,12.321041 18.3887331,12.7085745 18.6368739,12.9399024 L19.5127566,13.7564499 C19.6314897,13.8672554 19.7828211,13.9221274 19.933824,13.9221274 C20.0980469,13.9221274 20.2619413,13.8571302 20.3832199,13.728524 C20.6158416,13.481845 20.6031965,13.0942299 20.3551378,12.8629019 L19.4792551,12.0463544 Z"></path>
            <path d="M17.111695,9.69196205 C16.8636364,9.46063413 16.4738534,9.47312731 16.2412317,9.71988798 C16.00861,9.96664865 16.021173,10.3541821 16.2693138,10.58551 L17.1451965,11.4020576 C17.2639296,11.5128631 17.415261,11.5677351 17.5662639,11.5677351 C17.7304868,11.5677351 17.8943812,11.5027379 18.0156598,11.3741316 C18.2482815,11.1274526 18.2356364,10.7398375 17.9875777,10.5085096 L17.111695,9.69196205 Z"></path>
            <path d="M14.9083578,7.50092003 C14.660217,7.26959212 14.2705161,7.28200364 14.0378944,7.52884596 C13.8052727,7.77560663 13.8178358,8.16314009 14.0659765,8.39446801 L14.9418592,9.21101555 C15.0606745,9.32182105 15.2120059,9.37669305 15.3629267,9.37669305 C15.5272317,9.37669305 15.6911261,9.31169586 15.8123226,9.18308963 C16.0449443,8.93632896 16.0323812,8.54879549 15.7842405,8.31746758 L14.9083578,7.50092003 Z"></path>
        </g>
    </g>
</svg>